<svg id="Ebene_1" data-name="Ebene 1" xmlns="http://www.w3.org/2000/svg" viewBox="0 0 74.21 74.06"><defs><style>.cls-1{opacity:0.46;}.cls-2{fill:#fff;}</style></defs><g id="Gruppe_14" data-name="Gruppe 14" class="cls-1"><path id="Pfad_8" data-name="Pfad 8" class="cls-2" d="M37.3,74.56a37.05,37.05,0,0,1-37-37.09v-.14a37.11,37.11,0,0,1,74.21.1v.48A37,37,0,0,1,37.3,74.56ZM24.06,64.94c0-.65.1-1.28.1-1.91,0-4.41-.22-8.83.09-13.22.23-3.28-.57-5.51-3.82-6.59A2,2,0,0,1,19,41q.06-10.64,0-21.27c0-1.59.63-2,2.16-1.4.25,5.93.52,11.81.74,17.69,0,1.2.16,2,1.73,2s1.79-.69,1.83-1.95q.24-6.87.56-13.74c.07-1.4.21-2.8.32-4.33l1.91.16c.06.48.11.77.12,1.06.27,5.65.55,11.31.78,16.95.05,1.34.54,1.86,1.94,1.84s1.64-.74,1.67-1.9c.11-3.75.24-7.49.42-11.24.1-2.24.28-4.48.42-6.75h2c0,.56.09,1,.09,1.48,0,6-.23,12.05.08,18.05.18,3.47-.65,5.78-4,7a2.63,2.63,0,0,0-1.36,2c-.09,6.43,0,12.86,0,19.3,0,1.31.55,1.72,1.72,1.94a31,31,0,0,0,13.28-.57c1.07-.27,1.37-.9,1.36-1.94,0-4.11,0-8.22,0-12.33a4.31,4.31,0,0,0-.56-2c-5.49-9.62-4.9-19.35-.27-29a10.77,10.77,0,0,1,3.91-4c2.08-1.33,3-.65,3,1.81V63.86c9.57-2.68,17.14-18.77,15.13-31.61C65.56,17.46,51.6,6.08,36.5,6.67A31.12,31.12,0,0,0,6.57,35.14C5.62,47.58,14.68,63.18,24.06,64.94Z" transform="translate(-0.29 -0.5)"/></g></svg>