<svg id="Ebene_1" data-name="Ebene 1" xmlns="http://www.w3.org/2000/svg" viewBox="0 0 74.02 74.01"><defs><style>.cls-1{opacity:0.46;}.cls-2{fill:#fff;}</style></defs><g id="Gruppe_15" data-name="Gruppe 15" class="cls-1"><path id="Pfad_9" data-name="Pfad 9" class="cls-2" d="M30.26,30.38V.5H44.4V30.37H74.5V44.65h-30V74.51H30.23V46c0-1.34,0-1.35-1.39-1.35H.48V30.38Z" transform="translate(-0.48 -0.5)"/><path id="Pfad_10" data-name="Pfad 10" class="cls-2" d="M8.61,13.19c2.82-2.8,5.86-2.93,8.74-.2,1.92,1.82,3.6,3.9,5.37,5.87A14.16,14.16,0,0,0,27.8,23a.78.78,0,0,1,.42.5,35.69,35.69,0,0,1,0,3.87c-.1,1.2-.4,1.35-1.59,1.1-3.89-.79-6.78-3.09-9.28-6.05q-3.16-3.75-6.46-7.4A17.68,17.68,0,0,0,8.61,13.19Z" transform="translate(-0.48 -0.5)"/><path id="Pfad_11" data-name="Pfad 11" class="cls-2" d="M66.58,61.73c-2.86,2.75-5.94,2.86-8.78.08-2.14-2.09-4-4.51-6.09-6.61a42.61,42.61,0,0,0-4.27-3.3c-.19-.14-.43-.37-.44-.57,0-1.18-.1-2.37,0-3.55.08-1.42.42-1.62,1.79-1.32a14.86,14.86,0,0,1,8.17,5c2.14,2.43,4.14,5,6.3,7.4A35.75,35.75,0,0,0,66.58,61.73Z" transform="translate(-0.48 -0.5)"/><path id="Pfad_12" data-name="Pfad 12" class="cls-2" d="M61.78,8.39c2.45,2.21,2.92,5.09.89,7.71A44.28,44.28,0,0,1,58,20.74c-1.36,1.31-2.79,2.53-4.14,3.84a9.38,9.38,0,0,0-1.22,1.58c-.37.56-.64,1.63-1,1.67A26,26,0,0,1,47,27.75c-.63-.05-.6-.62-.51-1.15a14.93,14.93,0,0,1,5.21-8.74c2.34-2,4.79-4,7.1-6A39.39,39.39,0,0,0,61.78,8.39Z" transform="translate(-0.48 -0.5)"/><path id="Pfad_13" data-name="Pfad 13" class="cls-2" d="M12.9,65.91A5.4,5.4,0,0,1,12,58.32a3.7,3.7,0,0,1,.37-.42c1.9-2.08,4.08-3.89,6.17-5.79a15,15,0,0,0,4.25-5.23.61.61,0,0,1,.44-.36c1.43,0,2.85,0,4.28.06.71,0,1,.45.8,1.23A15.47,15.47,0,0,1,23,56.69c-1.69,1.46-3.52,2.76-5.16,4.27S14.55,64.25,12.9,65.91Z" transform="translate(-0.48 -0.5)"/><path id="Pfad_14" data-name="Pfad 14" class="cls-2" d="M15.12,6.67a7.51,7.51,0,0,1,9.7,1.19c3.21,3.31,4,7.35,3.45,12C22.36,16.84,19.17,11.38,15.12,6.67Z" transform="translate(-0.48 -0.5)"/><path id="Pfad_15" data-name="Pfad 15" class="cls-2" d="M19.65,46.45c-3,5.93-8.43,9.09-13,13.09-1.8-2.1-1.79-5.86,0-8.32,2.86-3.9,6.91-5.07,11.5-4.92C18.55,46.31,19,46.38,19.65,46.45Z" transform="translate(-0.48 -0.5)"/><path id="Pfad_16" data-name="Pfad 16" class="cls-2" d="M47.05,55.09c5.83,3,9,8.39,13,13-2.6,2-6.51,1.67-9.27-.77A13.42,13.42,0,0,1,47.05,55.09Z" transform="translate(-0.48 -0.5)"/><path id="Pfad_17" data-name="Pfad 17" class="cls-2" d="M68.22,14.86a7.11,7.11,0,0,1,.24,7.87c-2.61,4-6.52,5.38-11.06,5.42-.69,0-1.38-.09-2.28-.15C58.12,22.06,63.57,18.87,68.22,14.86Z" transform="translate(-0.48 -0.5)"/><path id="Pfad_18" data-name="Pfad 18" class="cls-2" d="M54.61,4.4c2.91,2.26,3.28,4.66,1,7.38a46.77,46.77,0,0,1-4.09,3.87C50,17.06,48.4,18.46,46.8,19.92c-1-2.7-1.19-5.51.48-8.06a30.09,30.09,0,0,1,3.88-4.33C52.24,6.44,53.43,5.47,54.61,4.4Z" transform="translate(-0.48 -0.5)"/><path id="Pfad_19" data-name="Pfad 19" class="cls-2" d="M55.11,46.75A8.61,8.61,0,0,1,64.33,48c1.53,1.35,2.87,2.93,4.29,4.41.63.65,1.23,1.33,1.84,2a4.26,4.26,0,0,1-5.63,2.15,5.36,5.36,0,0,1-.62-.34A19.18,19.18,0,0,1,61,53.34C59,51.19,57,48.94,55.11,46.75Z" transform="translate(-0.48 -0.5)"/><path id="Pfad_20" data-name="Pfad 20" class="cls-2" d="M4.69,20.34c2.27-2.94,4.73-3.28,7.49-.91a46.58,46.58,0,0,1,3.72,4c1.43,1.56,2.85,3.14,4.3,4.74-3.34,1.29-6.59,1-9.39-1.41-1.89-1.65-3.49-3.61-5.22-5.43Z" transform="translate(-0.48 -0.5)"/><path id="Pfad_21" data-name="Pfad 21" class="cls-2" d="M28,54.42c1.34,3.75.9,7.21-1.94,10.13-1.84,1.9-3.85,3.63-5.78,5.43-2.63-1.48-3.43-4.43-1.52-6.65a81.93,81.93,0,0,1,5.91-5.73C25.75,56.57,26.82,55.53,28,54.42Z" transform="translate(-0.48 -0.5)"/></g></svg>