<?xml version="1.0" encoding="utf-8"?>
<!-- Generator: Adobe Illustrator 24.1.3, SVG Export Plug-In . SVG Version: 6.00 Build 0)  -->
<svg version="1.1" id="Ebene_1" xmlns="http://www.w3.org/2000/svg" xmlns:xlink="http://www.w3.org/1999/xlink" x="0px" y="0px"
	 viewBox="0 0 80 112" style="enable-background:new 0 0 80 112;" xml:space="preserve">
<style type="text/css">
	.st0{fill:#F8CAD0;}
	.st1{fill:#EC6B7E;}
	.st2{fill:#DD4663;}
	.st3{fill:#1E1E3E;}
	.st4{fill:#263680;}
	.st5{opacity:0.41;fill:#1E1E3E;}
	.st6{opacity:0.18;fill:#1E1E3E;}
	.st7{opacity:0.22;fill:#1E1E3E;}
	.st8{fill:#154A99;}
	.st9{fill:none;}
</style>
<g id="XMLID_4_">
	<g>
		<rect x="2.9" y="3.5" class="st0" width="71.4" height="2.4"/>
		<polygon class="st1" points="67.8,90.8 67.8,99.1 64,99.1 64,90.8 65.7,90.8 66.8,90.8 		"/>
		<path class="st2" d="M67.8,15.6H9.6c0,0,0.5-7.9-6.7-9.7h71.4C67.1,7.7,67.8,15.6,67.8,15.6z"/>
		<polygon class="st1" points="67.8,31 67.8,90.8 66.8,90.8 65.7,90.8 64,90.8 64,31 65.8,31 66.9,31 		"/>
		<rect x="39.7" y="79.3" class="st0" width="22.5" height="2.1"/>
		<path class="st0" d="M62.2,39V41l-18.3,0c-0.3-0.7-0.6-1.4-0.8-2.1L62.2,39z"/>
		<polygon class="st3" points="62.2,81.3 62.2,99.1 39.7,99.1 39.7,81.3 		"/>
		<path class="st3" d="M62.2,71v8.2l-22.5,0V61.5l15.3,0C57.1,64.6,59.5,67.8,62.2,71L62.2,71z"/>
		<path class="st4" d="M62.2,61.5V71h-0.1c-2.7-3.2-5.1-6.4-7.2-9.5L62.2,61.5L62.2,61.5z"/>
		<path class="st0" d="M62.2,59.4v2.1h-0.1l-7.2,0c-0.5-0.7-0.9-1.4-1.4-2.1L62.2,59.4L62.2,59.4z"/>
		<path class="st4" d="M62.2,41v18.4h-0.1l-8.5,0c-4.4-6.8-7.5-13-9.7-18.4L62.2,41z"/>
		<path class="st4" d="M62.2,21.9v17l-19.1,0c-1.7-4.4-2.7-8.1-3.4-10.9v-6.1H62.2z"/>
		<path class="st0" d="M55,61.5l-15.3,0v-2.1l13.9,0C54,60.1,54.5,60.8,55,61.5z"/>
		<path class="st3" d="M53.6,59.4l-13.9,0V41.1h4.2C46.1,46.4,49.2,52.7,53.6,59.4z"/>
		<path class="st0" d="M43.9,41.1h-4.2V39h3.4C43.3,39.7,43.6,40.4,43.9,41.1z"/>
		<path class="st3" d="M39.7,28.1c0.7,2.8,1.7,6.6,3.4,10.9h-3.4V28.1z"/>
		<polygon class="st0" points="39.7,81.3 39.7,99.1 37.6,99.1 37.6,81.3 		"/>
		<polygon class="st0" points="39.7,79.3 39.7,81.3 37.6,81.3 37.6,79.3 		"/>
		<polygon class="st0" points="39.7,61.5 39.7,79.3 37.6,79.3 37.6,61.5 		"/>
		<polygon class="st0" points="39.7,59.5 39.7,61.5 37.6,61.5 37.6,59.5 		"/>
		<polygon class="st0" points="39.7,41.1 39.7,59.5 37.6,59.5 37.6,41.1 		"/>
		<polygon class="st0" points="39.7,39 39.7,41.1 37.6,41.1 37.6,39 		"/>
		<path class="st0" d="M39.7,28.1V39h-2.1V27.8c0.8-3.7,1-5.8,1-5.8S38.8,24.2,39.7,28.1z"/>
		<path class="st0" d="M39.7,21.9v6.1c-0.9-3.9-1.1-6.1-1.1-6.1H39.7z"/>
		<polygon class="st2" points="39.7,99.1 62.2,99.1 64,99.1 67.8,99.1 74,99.1 74,102.5 3.3,102.5 3.3,99.1 9.6,99.1 13.3,99.1 
			15.2,99.1 37.6,99.1 		"/>
		<path class="st0" d="M37.6,21.9h1c0,0-0.2,2.1-1,5.8V21.9z"/>
		<polygon class="st3" points="37.6,81.3 37.6,99.1 15.2,99.1 15.2,81.4 15.2,81.4 		"/>
		<polygon class="st0" points="37.6,79.3 37.6,81.3 15.2,81.4 15.2,81.4 15.2,79.3 15.2,79.3 		"/>
		<path class="st3" d="M37.6,61.5v17.7l-22.4,0h0v-8.4c2.6-3.2,4.9-6.3,7-9.3L37.6,61.5z"/>
		<path class="st0" d="M37.6,59.5v2.1l-15.4,0c0.5-0.7,1-1.4,1.4-2.1L37.6,59.5z"/>
		<path class="st3" d="M37.6,41.1v18.4l-14.1,0c4.4-6.8,7.6-13,9.8-18.4H37.6z"/>
		<path class="st0" d="M37.6,39v2.1h-4.3c0.3-0.7,0.6-1.4,0.8-2.1H37.6z"/>
		<path class="st3" d="M37.6,27.8V39h-3.5C35.9,34.5,37,30.6,37.6,27.8z"/>
		<path class="st4" d="M37.6,21.9v5.8c-0.7,2.9-1.7,6.7-3.5,11.2l-19,0V21.9H37.6z"/>
		<path class="st0" d="M15.2,39l19,0c-0.3,0.7-0.5,1.4-0.8,2.1l-18.2,0V39z"/>
		<path class="st4" d="M15.2,41.1l18.2,0c-2.2,5.4-5.3,11.7-9.8,18.4l-8.4,0V41.1z"/>
		<path class="st0" d="M15.2,59.5l8.4,0c-0.4,0.7-0.9,1.4-1.4,2.1l-7,0V59.5z"/>
		<path class="st4" d="M15.2,61.6l7,0c-2.1,3-4.4,6.1-7,9.3V61.6z"/>
		<polygon class="st0" points="15.2,61.6 15.2,70.9 15.2,79.3 15.2,81.4 15.2,99.1 13.3,99.1 13.3,89.5 13.3,29.8 13.3,20.2 
			64,20.2 64,31 64,90.8 64,99.1 62.2,99.1 62.2,81.3 62.2,79.3 62.2,71 62.2,61.5 62.2,59.4 62.2,41 62.2,39 62.2,21.9 39.7,21.9 
			38.6,21.9 37.6,21.9 15.2,21.9 15.2,39 15.2,41.1 15.2,59.5 		"/>
		<polygon class="st1" points="11.8,89.5 13.3,89.5 13.3,99.1 9.6,99.1 9.6,89.5 10.7,89.5 		"/>
		<polygon class="st1" points="11.7,29.8 11.7,31.1 10.6,31.1 9.6,31.1 9.6,15.6 67.8,15.6 67.8,31 66.9,31 65.8,31 64,31 64,20.2 
			13.3,20.2 13.3,29.8 		"/>
		<polygon class="st1" points="9.6,89.5 9.6,31.1 10.6,31.1 11.7,31.1 11.7,29.8 13.3,29.8 13.3,89.5 11.8,89.5 10.7,89.5 		"/>
	</g>
	<g>
	</g>
</g>
<rect x="13.3" y="20.2" class="st5" width="50.7" height="10.8"/>
<polygon class="st6" points="77.1,108.5 6.8,108.5 3.3,102.5 74,102.5 "/>
<path class="st7" d="M8.3,9.9h60.8c0,0,1.3-3,5.3-4H2.9C2.9,5.9,6,6.3,8.3,9.9z"/>
<polyline class="st8" points="66.9,29.6 65.8,29.6 65.8,31 66.9,31 "/>
<polyline class="st8" points="66.8,89.4 65.7,89.4 65.7,90.8 66.8,90.8 "/>
<polyline class="st8" points="10.6,29.7 11.7,29.7 11.7,31.1 10.6,31.1 "/>
<polyline class="st8" points="10.7,89.5 11.8,89.5 11.8,90.9 10.7,90.9 "/>
<g>
	<rect x="14" y="24.3" class="st9" width="18.8" height="1.5"/>
	<path class="st8" d="M11.5,21.1v76.7H35V21.1H11.5z M13.9,30.4h18.8v1.5H13.9V30.4z M13.9,33.5h18.8V35H13.9V33.5z M13.8,42.4h18.8
		v1.5H13.8V42.4z M13.8,45.4h18.8v1.5H13.8V45.4z M13.8,54.6h18.8v1.5H13.8V54.6z M13.8,57.6h18.8v1.5H13.8V57.6z M13.8,66.5h18.8
		V68H13.8V66.5z M13.8,69.5h18.8v1.5H13.8V69.5z M13.8,78.5h18.8v1.5H13.8V78.5z M13.8,81.6h18.8v1.5H13.8V81.6z M32.5,95H13.7v-1.5
		h18.8V95z M32.5,92H13.7v-1.5h18.8V92z M32.6,88.9H13.8v-1.5h18.8V88.9z M32.6,85.9H13.8v-1.5h18.8V85.9z M32.7,77H13.8v-1.5h18.8
		V77z M32.7,73.9H13.8v-1.5h18.8V73.9z M32.7,64.9H13.9v-1.5h18.8V64.9z M32.7,61.9H13.9v-1.5h18.8V61.9z M32.7,53H13.9v-1.5h18.8
		V53z M32.7,50H13.9v-1.5h18.8V50z M32.7,40.8H13.9v-1.5h18.8V40.8z M32.7,37.8H13.9v-1.5h18.8V37.8z M32.8,28.8H14v-1.5h18.8V28.8z
		 M32.8,25.8H14v-1.5h18.8V25.8z"/>
</g>
<g>
	<rect x="45" y="24.3" class="st9" width="18.8" height="1.5"/>
	<path class="st8" d="M42.6,21.1v76.7h23.5V21.1H42.6z M44.9,30.4h18.8v1.5H44.9V30.4z M44.9,33.5h18.8V35H44.9V33.5z M44.9,42.4
		h18.8v1.5H44.9V42.4z M44.9,45.4h18.8v1.5H44.9V45.4z M44.8,54.6h18.8v1.5H44.8V54.6z M44.8,57.6h18.8v1.5H44.8V57.6z M44.8,66.5
		h18.8V68H44.8V66.5z M44.8,69.5h18.8v1.5H44.8V69.5z M44.8,78.5h18.8v1.5H44.8V78.5z M44.8,81.6h18.8v1.5H44.8V81.6z M63.6,95H44.7
		v-1.5h18.8V95z M63.6,92H44.7v-1.5h18.8V92z M63.7,88.9H44.8v-1.5h18.8V88.9z M63.7,85.9H44.8v-1.5h18.8V85.9z M63.7,77H44.9v-1.5
		h18.8V77z M63.7,73.9H44.9v-1.5h18.8V73.9z M63.7,64.9H44.9v-1.5h18.8V64.9z M63.7,61.9H44.9v-1.5h18.8V61.9z M63.8,53H44.9v-1.5
		h18.8V53z M63.8,50H44.9v-1.5h18.8V50z M63.8,40.8H45v-1.5h18.8V40.8z M63.8,37.8H45v-1.5h18.8V37.8z M63.8,28.8H45v-1.5h18.8V28.8
		z M63.8,25.8H45v-1.5h18.8V25.8z"/>
</g>
</svg>
