<?xml version="1.0" encoding="utf-8"?>
<!-- Generator: Adobe Illustrator 24.1.3, SVG Export Plug-In . SVG Version: 6.00 Build 0)  -->
<svg version="1.1" id="Linie" xmlns="http://www.w3.org/2000/svg" xmlns:xlink="http://www.w3.org/1999/xlink" x="0px" y="0px"
	 viewBox="0 0 900 56.2" style="enable-background:new 0 0 900 56.2;" xml:space="preserve">
<style type="text/css">
	.st0{fill:none;stroke:#F5BDC5;stroke-width:1.751;stroke-miterlimit:10;}
</style>
<line class="st0" x1="2.7" y1="27.8" x2="894.8" y2="27.8"/>
<line class="st0" x1="16.7" y1="13" x2="16.7" y2="42.7"/>
<line class="st0" x1="232.1" y1="13" x2="232.1" y2="42.7"/>
<line class="st0" x1="447.4" y1="13" x2="447.4" y2="42.7"/>
<line class="st0" x1="662.8" y1="13" x2="662.8" y2="42.7"/>
<line class="st0" x1="878.2" y1="13" x2="878.2" y2="42.7"/>
<line class="st0" x1="70.7" y1="18.2" x2="70.7" y2="36.6"/>
<line class="st0" x1="43.6" y1="18.2" x2="43.6" y2="36.6"/>
<line class="st0" x1="179.3" y1="18.2" x2="179.3" y2="36.6"/>
<line class="st0" x1="152.2" y1="18.2" x2="152.2" y2="36.6"/>
<line class="st0" x1="125" y1="18.2" x2="125" y2="36.6"/>
<line class="st0" x1="97.9" y1="18.2" x2="97.9" y2="36.6"/>
<line class="st0" x1="206.4" y1="18.2" x2="206.4" y2="36.6"/>
<line class="st0" x1="285.5" y1="18.2" x2="285.5" y2="36.6"/>
<line class="st0" x1="258.3" y1="18.2" x2="258.3" y2="36.6"/>
<line class="st0" x1="394" y1="18.2" x2="394" y2="36.6"/>
<line class="st0" x1="366.9" y1="18.2" x2="366.9" y2="36.6"/>
<line class="st0" x1="339.7" y1="18.2" x2="339.7" y2="36.6"/>
<line class="st0" x1="312.6" y1="18.2" x2="312.6" y2="36.6"/>
<line class="st0" x1="421.2" y1="18.2" x2="421.2" y2="36.6"/>
<line class="st0" x1="500.8" y1="18.2" x2="500.8" y2="36.6"/>
<line class="st0" x1="473.7" y1="18.2" x2="473.7" y2="36.6"/>
<line class="st0" x1="609.4" y1="18.2" x2="609.4" y2="36.6"/>
<line class="st0" x1="582.3" y1="18.2" x2="582.3" y2="36.6"/>
<line class="st0" x1="555.1" y1="18.2" x2="555.1" y2="36.6"/>
<line class="st0" x1="528" y1="18.2" x2="528" y2="36.6"/>
<line class="st0" x1="636.5" y1="18.2" x2="636.5" y2="36.6"/>
<line class="st0" x1="716.2" y1="19.1" x2="716.2" y2="37.5"/>
<line class="st0" x1="689.1" y1="19.1" x2="689.1" y2="37.5"/>
<line class="st0" x1="824.8" y1="19.1" x2="824.8" y2="37.5"/>
<line class="st0" x1="797.6" y1="19.1" x2="797.6" y2="37.5"/>
<line class="st0" x1="770.5" y1="19.1" x2="770.5" y2="37.5"/>
<line class="st0" x1="743.3" y1="19.1" x2="743.3" y2="37.5"/>
<line class="st0" x1="851.9" y1="19.1" x2="851.9" y2="37.5"/>
</svg>
